<svg data-v-423bf9ae="" xmlns="http://www.w3.org/2000/svg" viewBox="0 0 221.29293875257537 60" class="font"><!----><!----><!----><g data-v-423bf9ae="" id="c1bfe873-e7de-4c77-8e15-2d7bbfff3a15" fill="white" transform="matrix(4.909983142910657,0,0,4.909983142910657,-1.7184967421351018,-18.75613503972339)"><path d="M4.54 13.50L4.54 4.68L7.84 4.68L7.84 3.82L0.35 3.82L0.35 4.68L3.63 4.68L3.63 13.50ZM9.65 13.50L9.65 9.90C9.65 9.16 9.74 8.58 10.02 8.13C10.30 7.69 10.98 7.14 11.94 7.14C12.63 7.14 13.08 7.34 13.36 7.64C13.64 7.95 13.83 8.47 13.83 9.45L13.83 13.50L14.70 13.50L14.70 9.35C14.70 8.23 14.52 7.62 14.22 7.21C13.80 6.64 13.13 6.34 12.18 6.34C10.95 6.34 9.94 7.03 9.65 7.90L9.65 3.82L8.81 3.82L8.81 13.50ZM23.10 11.38L22.27 11.20C22.02 12.15 21.18 12.88 19.92 12.88C18.89 12.88 17.40 12.32 17.39 10.19L23.13 10.19C23.13 7.62 21.91 6.33 19.85 6.33C17.99 6.33 16.49 7.71 16.49 9.97C16.49 12.19 17.72 13.66 19.89 13.66C21.60 13.66 22.76 12.71 23.10 11.38ZM17.39 9.51C17.53 7.91 18.59 7.11 19.84 7.11C21.50 7.11 22.13 8.19 22.23 9.51ZM31.08 13.48L31.00 12.78C30.87 12.81 30.73 12.82 30.56 12.82C30.34 12.82 30.17 12.74 30.06 12.53C29.96 12.36 29.95 12.05 29.95 11.69L29.95 9.30C29.95 8.72 29.95 8.22 29.81 7.76C29.53 6.78 28.73 6.33 27.38 6.33C25.42 6.33 24.44 7.22 24.44 8.83L25.26 8.88C25.31 7.29 26.36 7.13 27.33 7.13C28.39 7.13 28.77 7.60 28.95 7.98C29.05 8.20 29.12 8.71 29.12 9.20L29.12 9.49L28.29 9.49C26.61 9.49 25.66 9.69 25.07 10.01C24.49 10.33 24.16 10.88 24.16 11.62C24.16 12.84 25.05 13.66 26.66 13.66C27.68 13.66 28.73 13.27 29.16 12.36C29.22 13.06 29.46 13.58 30.37 13.58C30.58 13.58 30.87 13.55 31.08 13.48ZM29.12 10.18L29.12 10.89C29.12 11.17 29.05 11.61 28.88 11.91C28.63 12.35 27.94 12.92 26.78 12.92C25.90 12.92 25.00 12.57 25.00 11.56C25.00 11.00 25.34 10.63 25.83 10.46C26.35 10.28 27.17 10.18 28.31 10.18ZM33.12 13.50L33.12 3.82L32.28 3.82L32.28 13.50ZM38.58 13.44L38.40 12.73C38.21 12.81 37.86 12.89 37.51 12.89C36.99 12.89 36.72 12.67 36.61 12.32C36.54 12.08 36.53 11.70 36.53 11.20L36.53 7.24L38.30 7.24L38.30 6.51L36.53 6.51L36.53 4.62L35.67 4.62L35.67 6.51L34.58 6.51L34.58 7.24L35.67 7.24L35.67 11.27C35.67 11.84 35.69 12.26 35.80 12.68C35.99 13.38 36.61 13.66 37.31 13.66C37.83 13.66 38.28 13.57 38.58 13.44ZM39.02 15.90C39.21 15.97 39.63 16.04 39.94 16.04C40.70 16.04 41.33 15.85 41.82 15.05C42.20 14.45 42.49 13.68 42.70 13.17L45.42 6.51L44.49 6.51C42.74 10.88 42.46 11.59 42.20 12.32C41.94 11.68 41.71 11.09 39.72 6.51L38.75 6.51L41.72 13.27L41.55 13.65C41.36 14.11 41.09 14.62 40.92 14.83C40.73 15.09 40.42 15.26 39.97 15.26C39.76 15.26 39.41 15.20 39.19 15.12Z"></path></g><!----><!----></svg>